<svg width="21" height="16" viewBox="0 0 21 16" fill="none" xmlns="http://www.w3.org/2000/svg">
<path fill-rule="evenodd" clip-rule="evenodd" d="M2.07667 2.53081C2.23291 2.01864 2.70918 1.64606 3.27246 1.64606H17.2725C17.8358 1.64606 18.312 2.01864 18.4683 2.53081L10.2725 7.99467L2.07667 2.53081ZM0.522498 2.88232C0.522359 2.89032 0.522348 2.89832 0.522464 2.90631V12.8961C0.522464 14.4148 1.75368 15.6461 3.27246 15.6461H17.2725C18.7912 15.6461 20.0225 14.4148 20.0225 12.8961V2.90629M18.5225 4.29744V12.8961C18.5225 13.5864 17.9628 14.1461 17.2725 14.1461H3.27246C2.58211 14.1461 2.02246 13.5864 2.02246 12.8961V4.29744L9.85644 9.52009C10.1084 9.68804 10.4366 9.68804 10.6885 9.52009L18.5225 4.29744ZM20.0224 2.88235C20.015 1.36987 18.7867 0.146057 17.2725 0.146057H3.27246C1.75826 0.146057 0.529895 1.36986 0.522498 2.88232" fill="#141718"/>
</svg>
