<svg width="16" height="16" viewBox="0 0 16 16" fill="none" xmlns="http://www.w3.org/2000/svg">
<path fill-rule="evenodd" clip-rule="evenodd" d="M8.37498 3.33337C8.37498 3.12627 8.20709 2.95837 7.99998 2.95837C7.79287 2.95837 7.62498 3.12627 7.62498 3.33337V7.62504H3.33331C3.12621 7.62504 2.95831 7.79293 2.95831 8.00004C2.95831 8.20715 3.12621 8.37504 3.33331 8.37504H7.62498V12.6667C7.62498 12.8738 7.79287 13.0417 7.99998 13.0417C8.20709 13.0417 8.37498 12.8738 8.37498 12.6667V8.37504H12.6666C12.8738 8.37504 13.0416 8.20715 13.0416 8.00004C13.0416 7.79293 12.8738 7.62504 12.6666 7.62504H8.37498V3.33337Z" fill="#121212"/>
</svg>
